# xmcd
#
# Track frame offsets: 
#        150
#        17975
#        41256
#        60885
#        91554
#        111025
#
# Disc length: 1712 seconds
#
# Revision: 0
# Processed by: cddbd v1.5.2PL0 Copyright (c) Steve Scherf et al.
# Submitted via: ExactAudioCopy v0.99pb4
#
DISCID=3606ae06
DTITLE=Hannah Tolf and Dick Ahlin - Cypress groove
DYEAR=2008
DGENRE=Blues
TTITLE0=Little red rooster
TTITLE1=Last night
TTITLE2=Mother's children have a hard time
TTITLE3=Illinois blues
TTITLE4=Walking blues
TTITLE5=Cypress groove blues
EXTD=
EXTT0=
EXTT1=
EXTT2=
EXTT3=
EXTT4=
EXTT5=
PLAYORDER=
